<svg xmlns="http://www.w3.org/2000/svg" width="1240" height="520" viewBox="0 0 1240 520" role="img" aria-label="AIH governed readiness flow">
<rect width="1240" height="520" rx="24" fill="#f8fafc"/>
<text x="48" y="58" fill="#0f172a" font-family="Inter, Arial, sans-serif" font-size="28" font-weight="800">Governed readiness loop</text>
<text x="48" y="92" fill="#475569" font-family="Inter, Arial, sans-serif" font-size="16">What happens before an AI-assisted change is reviewed.</text>
<rect x="52" y="150" width="205" height="150" rx="20" fill="#e0e7ff" stroke="#4f46e5" stroke-width="2"/>
<circle cx="84" cy="184" r="18" fill="#4f46e5"/>
<text x="79" y="191" fill="#ffffff" font-family="Inter, Arial, sans-serif" font-size="18" font-weight="800">1</text>
<text x="76" y="228" fill="#0f172a" font-family="Inter, Arial, sans-serif" font-size="18" font-weight="800">Ready workspace</text>
<text x="76" y="258" fill="#334155" font-family="Inter, Arial, sans-serif" font-size="13">doctor, certs, tools,</text>
<text x="76" y="276" fill="#334155" font-family="Inter, Arial, sans-serif" font-size="13">runtime</text>
<path d="M 261 225 H 279" stroke="#64748b" stroke-width="3"/>
<path d="M 279 225 l -7 -5 v 10 z" fill="#64748b"/>
<rect x="285" y="150" width="205" height="150" rx="20" fill="#dbeafe" stroke="#2563eb" stroke-width="2"/>
<circle cx="317" cy="184" r="18" fill="#2563eb"/>
<text x="312" y="191" fill="#ffffff" font-family="Inter, Arial, sans-serif" font-size="18" font-weight="800">2</text>
<text x="309" y="228" fill="#0f172a" font-family="Inter, Arial, sans-serif" font-size="18" font-weight="800">Load context</text>
<text x="309" y="258" fill="#334155" font-family="Inter, Arial, sans-serif" font-size="13">repo canon, truth,</text>
<text x="309" y="276" fill="#334155" font-family="Inter, Arial, sans-serif" font-size="13">workspace map</text>
<path d="M 494 225 H 512" stroke="#64748b" stroke-width="3"/>
<path d="M 512 225 l -7 -5 v 10 z" fill="#64748b"/>
<rect x="518" y="150" width="205" height="150" rx="20" fill="#fef3c7" stroke="#f59e0b" stroke-width="2"/>
<circle cx="550" cy="184" r="18" fill="#f59e0b"/>
<text x="545" y="191" fill="#ffffff" font-family="Inter, Arial, sans-serif" font-size="18" font-weight="800">3</text>
<text x="542" y="228" fill="#0f172a" font-family="Inter, Arial, sans-serif" font-size="18" font-weight="800">Apply policy</text>
<text x="542" y="258" fill="#334155" font-family="Inter, Arial, sans-serif" font-size="13">posture, org policy,</text>
<text x="542" y="276" fill="#334155" font-family="Inter, Arial, sans-serif" font-size="13">approvals</text>
<path d="M 727 225 H 745" stroke="#64748b" stroke-width="3"/>
<path d="M 745 225 l -7 -5 v 10 z" fill="#64748b"/>
<rect x="751" y="150" width="205" height="150" rx="20" fill="#fee2e2" stroke="#ef4444" stroke-width="2"/>
<circle cx="783" cy="184" r="18" fill="#ef4444"/>
<text x="778" y="191" fill="#ffffff" font-family="Inter, Arial, sans-serif" font-size="18" font-weight="800">4</text>
<text x="775" y="228" fill="#0f172a" font-family="Inter, Arial, sans-serif" font-size="18" font-weight="800">Gate execution</text>
<text x="775" y="258" fill="#334155" font-family="Inter, Arial, sans-serif" font-size="13">dry-run, dirty tree, local</text>
<text x="775" y="276" fill="#334155" font-family="Inter, Arial, sans-serif" font-size="13">actions</text>
<path d="M 960 225 H 978" stroke="#64748b" stroke-width="3"/>
<path d="M 978 225 l -7 -5 v 10 z" fill="#64748b"/>
<rect x="984" y="150" width="205" height="150" rx="20" fill="#dcfce7" stroke="#10b981" stroke-width="2"/>
<circle cx="1016" cy="184" r="18" fill="#10b981"/>
<text x="1011" y="191" fill="#ffffff" font-family="Inter, Arial, sans-serif" font-size="18" font-weight="800">5</text>
<text x="1008" y="228" fill="#0f172a" font-family="Inter, Arial, sans-serif" font-size="18" font-weight="800">Package proof</text>
<text x="1008" y="258" fill="#334155" font-family="Inter, Arial, sans-serif" font-size="13">ledger, evidence, bundle,</text>
<text x="1008" y="276" fill="#334155" font-family="Inter, Arial, sans-serif" font-size="13">verify</text>
<rect x="190" y="360" width="860" height="78" rx="18" fill="#0f172a"/>
<text x="220" y="394" fill="#e5e7eb" font-family="Inter, Arial, sans-serif" font-size="18" font-weight="800">Operating principle</text>
<text x="220" y="424" fill="#cbd5e1" font-family="Inter, Arial, sans-serif" font-size="15">The governed path should be fast: local first, dry-run first, evidence ready before review.</text>
</svg>
