<svg width="1200" height="720" viewBox="0 0 1200 720" xmlns="http://www.w3.org/2000/svg" font-family="ui-sans-serif, -apple-system, Segoe UI, Roboto, sans-serif">
  <defs>
    <linearGradient id="bg" x1="0" y1="0" x2="1" y2="1">
      <stop offset="0" stop-color="#0b0e14"/>
      <stop offset="1" stop-color="#11161f"/>
    </linearGradient>
    <radialGradient id="glow" cx="0.5" cy="0.12" r="0.9">
      <stop offset="0" stop-color="#1f6feb" stop-opacity="0.18"/>
      <stop offset="1" stop-color="#1f6feb" stop-opacity="0"/>
    </radialGradient>
    <pattern id="dots" width="26" height="26" patternUnits="userSpaceOnUse">
      <circle cx="1" cy="1" r="1" fill="#ffffff" fill-opacity="0.035"/>
    </pattern>
    <filter id="soft" x="-20%" y="-20%" width="140%" height="140%">
      <feDropShadow dx="0" dy="6" stdDeviation="10" flood-color="#000000" flood-opacity="0.45"/>
    </filter>
  </defs>

  <!-- backdrop -->
  <rect width="1200" height="720" fill="url(#bg)"/>
  <rect width="1200" height="720" fill="url(#dots)"/>
  <rect width="1200" height="720" fill="url(#glow)"/>
  <rect x="0.5" y="0.5" width="1199" height="719" rx="0" fill="none" stroke="#222a35" stroke-width="1"/>

  <!-- ===== header ===== -->
  <text x="64" y="118" font-size="78" font-weight="800" fill="#e6edf3" letter-spacing="-2">aih</text>
  <rect x="206" y="58" width="2" height="74" fill="#2b323c"/>
  <text x="230" y="86" font-size="25" font-weight="700" fill="#e6edf3">Enterprise AI Bootstrapping Harness</text>
  <g transform="translate(716,66)">
    <rect width="148" height="27" rx="13.5" fill="#3fb950" fill-opacity="0.14" stroke="#3fb950" stroke-opacity="0.55"/>
    <text x="74" y="18" font-size="13" font-weight="700" fill="#56d364" text-anchor="middle">v1.0 · stable contract</text>
  </g>
  <text x="230" y="118" font-size="17" fill="#8b949e">One cross-platform CLI · dry-run by default · never mutates a remote system</text>

  <!-- tag, top-right -->
  <g transform="translate(1136,74)" text-anchor="end">
    <text x="0" y="0" font-size="14" fill="#6e7681" font-family="ui-monospace, SFMono-Regular, Menlo, monospace">38 commands</text>
    <text x="0" y="22" font-size="14" fill="#6e7681" font-family="ui-monospace, SFMono-Regular, Menlo, monospace">TypeScript · Apache-2.0</text>
  </g>

  <text x="64" y="178" font-size="18" fill="#adbac7">Prepares developer workstations &amp; repos for <tspan fill="#e6edf3" font-weight="600">safe, governed AI-assisted coding in enterprise environments.</tspan></text>

  <!-- ===== pipeline ===== -->
  <!-- 5 cards: x = 49, 273, 497, 721, 945 ; width 206 ; y 224 ; h 212 -->
  <g filter="url(#soft)">
    <!-- 1 · Proxy -->
    <g transform="translate(49,224)">
      <rect width="206" height="212" rx="14" fill="#151a22" stroke="#2b323c"/>
      <rect width="206" height="4" rx="2" fill="#f85149"/>
      <g transform="translate(22,30)" stroke="#f85149" stroke-width="2.4" fill="none" stroke-linejoin="round" stroke-linecap="round">
        <path d="M0 0 H34 L24 16 V30 L10 36 V16 Z"/>
      </g>
      <text x="22" y="106" font-size="19" font-weight="700" fill="#e6edf3">Corporate proxy</text>
      <text x="22" y="132" font-size="13" fill="#8b949e">TLS interception breaks</text>
      <text x="22" y="151" font-size="13" fill="#8b949e">trust for every runtime</text>
      <text x="22" y="186" font-size="12.5" fill="#6e7681" font-family="ui-monospace, Menlo, monospace">Zscaler · Netskope</text>
      <text x="22" y="203" font-size="12.5" fill="#6e7681" font-family="ui-monospace, Menlo, monospace">Palo Alto · any MITM</text>
    </g>

    <!-- 2 · Trust (heal highlighted) -->
    <g transform="translate(273,224)">
      <rect width="206" height="212" rx="14" fill="#151a22" stroke="#3a4150"/>
      <rect width="206" height="4" rx="2" fill="#3fb950"/>
      <g transform="translate(22,28)" stroke="#3fb950" stroke-width="2.4" fill="none" stroke-linecap="round">
        <rect x="2" y="14" width="28" height="20" rx="3"/>
        <path d="M8 14 V9 a8 8 0 0 1 16 0 V14"/>
      </g>
      <text x="22" y="106" font-size="19" font-weight="700" fill="#e6edf3">Trust</text>
      <text x="22" y="132" font-size="13" fill="#8b949e">Extract the corporate CA;</text>
      <text x="22" y="151" font-size="13" fill="#8b949e">propagate &amp; self-heal it</text>
      <g transform="translate(22,172)">
        <text x="0" y="14" font-size="13" fill="#adbac7" font-family="ui-monospace, Menlo, monospace">aih certs</text>
        <text x="0" y="33" font-size="13" fill="#adbac7" font-family="ui-monospace, Menlo, monospace">aih heal</text>
      </g>
    </g>

    <!-- 3 · Tune -->
    <g transform="translate(497,224)">
      <rect width="206" height="212" rx="14" fill="#151a22" stroke="#2b323c"/>
      <rect width="206" height="4" rx="2" fill="#58a6ff"/>
      <g transform="translate(22,30)" stroke="#58a6ff" stroke-width="2.4" fill="none" stroke-linecap="round">
        <path d="M2 6 H32 M2 18 H32 M2 30 H32"/>
        <circle cx="11" cy="6" r="4" fill="#151a22"/>
        <circle cx="24" cy="18" r="4" fill="#151a22"/>
        <circle cx="9" cy="30" r="4" fill="#151a22"/>
      </g>
      <text x="22" y="106" font-size="19" font-weight="700" fill="#e6edf3">Tune</text>
      <text x="22" y="132" font-size="13" fill="#8b949e">Profile CPU/RAM/GPU;</text>
      <text x="22" y="151" font-size="13" fill="#8b949e">redirect VDI scratch</text>
      <text x="22" y="186" font-size="12.5" fill="#6e7681" font-family="ui-monospace, Menlo, monospace">hardware · vdi</text>
    </g>

    <!-- 4 · Bootstrap -->
    <g transform="translate(721,224)">
      <rect width="206" height="212" rx="14" fill="#151a22" stroke="#2b323c"/>
      <rect width="206" height="4" rx="2" fill="#3fb950"/>
      <g transform="translate(22,28)" stroke="#3fb950" stroke-width="2.4" fill="none" stroke-linejoin="round">
        <path d="M16 4 L32 12 L16 20 L0 12 Z"/>
        <path d="M0 20 L16 28 L32 20"/>
        <path d="M0 28 L16 36 L32 28"/>
      </g>
      <text x="22" y="106" font-size="19" font-weight="700" fill="#e6edf3">Bootstrap</text>
      <text x="22" y="132" font-size="13" fill="#8b949e">Lay the governed repo</text>
      <text x="22" y="151" font-size="13" fill="#8b949e">canon — one writer/file</text>
      <text x="22" y="184" font-size="11.5" fill="#6e7681" font-family="ui-monospace, Menlo, monospace">profile · scaffold</text>
      <text x="22" y="201" font-size="11.5" fill="#6e7681" font-family="ui-monospace, Menlo, monospace">guardrails · mcp · sandbox</text>
    </g>

    <!-- 5 · Governed AI (v0.6: skill trust gate + marketplace + policy/evidence seams) -->
    <g transform="translate(945,224)">
      <rect width="206" height="212" rx="14" fill="#151a22" stroke="#3a4150"/>
      <rect width="206" height="4" rx="2" fill="#bc8cff"/>
      <g transform="translate(22,28)" fill="#bc8cff">
        <path d="M16 0 L20 12 L32 16 L20 20 L16 32 L12 20 L0 16 L12 12 Z"/>
      </g>
      <text x="22" y="106" font-size="19" font-weight="700" fill="#e6edf3">Governed AI</text>
      <text x="22" y="132" font-size="13" fill="#8b949e">Skill trust gate, packs,</text>
      <text x="22" y="151" font-size="13" fill="#8b949e">marketplace &amp; evidence</text>
      <g transform="translate(22,172)">
        <text x="0" y="14" font-size="13" fill="#adbac7" font-family="ui-monospace, Menlo, monospace">aih skill vet</text>
        <text x="0" y="33" font-size="13" fill="#adbac7" font-family="ui-monospace, Menlo, monospace">aih marketplace</text>
      </g>
    </g>
  </g>

  <!-- arrows between cards (gaps centered at x=264, 488, 712, 936 ; y=330) -->
  <g stroke="#4b5563" stroke-width="2.2" fill="none" stroke-linecap="round" stroke-linejoin="round">
    <path d="M260 330 h10 m-5 -5 l5 5 l-5 5"/>
    <path d="M484 330 h10 m-5 -5 l5 5 l-5 5"/>
    <path d="M708 330 h10 m-5 -5 l5 5 l-5 5"/>
    <path d="M932 330 h10 m-5 -5 l5 5 l-5 5"/>
  </g>

  <!-- ===== posture chips ===== -->
  <g transform="translate(64,486)" font-size="13.5" font-weight="600">
    <g>
      <rect width="186" height="34" rx="17" fill="#161b22" stroke="#2b323c"/>
      <circle cx="20" cy="17" r="4" fill="#3fb950"/>
      <text x="34" y="22" fill="#adbac7">Dry-run by default</text>
    </g>
    <g transform="translate(202,0)">
      <rect width="214" height="34" rx="17" fill="#161b22" stroke="#2b323c"/>
      <circle cx="20" cy="17" r="4" fill="#3fb950"/>
      <text x="34" y="22" fill="#adbac7">Never mutates a remote</text>
    </g>
    <g transform="translate(432,0)">
      <rect width="226" height="34" rx="17" fill="#161b22" stroke="#2b323c"/>
      <circle cx="20" cy="17" r="4" fill="#3fb950"/>
      <text x="34" y="22" fill="#adbac7">Idempotent + transactional</text>
    </g>
    <g transform="translate(674,0)">
      <rect width="248" height="34" rx="17" fill="#161b22" stroke="#2b323c"/>
      <circle cx="20" cy="17" r="4" fill="#58a6ff"/>
      <text x="34" y="22" fill="#adbac7">Windows · Linux · macOS</text>
    </g>
  </g>

  <!-- ===== the road to 1.0 (release journey) ===== -->
  <g>
    <text x="64" y="552" font-size="11" font-weight="700" fill="#6e7681" letter-spacing="2" font-family="ui-monospace, Menlo, monospace">THE ROAD TO 1.0</text>
    <line x1="64" y1="574" x2="1136" y2="574" stroke="#2b323c" stroke-width="1.6"/>
    <g fill="#8b949e">
      <circle cx="70" cy="574" r="4" fill="#58a6ff"/>
      <circle cx="290" cy="574" r="4" fill="#58a6ff"/>
      <circle cx="500" cy="574" r="4" fill="#58a6ff"/>
      <circle cx="710" cy="574" r="4" fill="#58a6ff"/>
      <circle cx="905" cy="574" r="4" fill="#58a6ff"/>
      <circle cx="1120" cy="574" r="5.5" fill="#3fb950"/>
    </g>
    <g font-size="12" fill="#8b949e" font-family="ui-monospace, Menlo, monospace">
      <text x="64" y="596">0.2 foundation</text>
      <text x="290" y="596" text-anchor="middle">0.3 dev experience</text>
      <text x="500" y="596" text-anchor="middle">0.4 skill trust gate</text>
      <text x="710" y="596" text-anchor="middle">0.5 skill packs</text>
      <text x="905" y="596" text-anchor="middle">0.6 marketplace + seams</text>
      <text x="1136" y="596" text-anchor="end" fill="#56d364" font-weight="700">1.0 frozen contract</text>
    </g>
    <text x="64" y="622" font-size="13" fill="#adbac7">v1.0 freezes the CLI · JSON · SARIF · exit-code contract — <tspan fill="#e6edf3" font-weight="600">snapshot-tested in CI</tspan> · Sigstore-signed releases · N-1 security backports</text>
  </g>

  <!-- footer -->
  <line x1="64" y1="646" x2="1136" y2="646" stroke="#1d242e"/>
  <text x="64" y="672" font-size="13" fill="#6e7681" font-family="ui-monospace, SFMono-Regular, Menlo, monospace">$ aih init . --apply&#160;&#160;&#160;#  profile · superpowers · bootstrap-ai · scaffold · secrets · guardrails · mcp · sandbox</text>
  <text x="64" y="694" font-size="13" fill="#6e7681" font-family="ui-monospace, SFMono-Regular, Menlo, monospace">$ aih skill vet · approve&#160;&#160;·&#160;&#160;pack install&#160;&#160;·&#160;&#160;marketplace build&#160;&#160;·&#160;&#160;policy validate&#160;&#160;·&#160;&#160;evidence build</text>
  <text x="1136" y="672" font-size="13" fill="#6e7681" text-anchor="end" font-family="ui-monospace, Menlo, monospace">github.com/samartomar/ai-harness</text>
</svg>
