<svg xmlns="http://www.w3.org/2000/svg" width="1240" height="560" viewBox="0 0 1240 560" role="img" aria-label="AIH governed readiness evidence map">
<defs>
<linearGradient id="bg" x1="0" x2="1" y1="0" y2="1"><stop offset="0" stop-color="#0f172a"/><stop offset="1" stop-color="#172554"/></linearGradient>
</defs>
<rect width="1240" height="560" rx="28" fill="url(#bg)"/>
<text x="48" y="62" fill="#e5e7eb" font-family="Inter, Arial, sans-serif" font-size="26" font-weight="700">Enterprise AI signal</text>
<text x="48" y="100" fill="#94a3b8" font-family="Inter, Arial, sans-serif" font-size="17">Adoption is high. Governed readiness is the gap.</text>
<rect x="48" y="135" width="174" height="130" rx="18" fill="#ffffff" stroke="#e2e8f0" stroke-width="1.5"/>
<text x="66" y="185" fill="#111827" font-family="Inter, Arial, sans-serif" font-size="36" font-weight="800">88%</text>
<text x="66" y="213" fill="#334155" font-family="Inter, Arial, sans-serif" font-size="13" font-weight="700">regular AI use</text>
<text x="66" y="253" fill="#64748b" font-family="Inter, Arial, sans-serif" font-size="11">McKinsey 2025</text>
<rect x="240" y="135" width="174" height="130" rx="18" fill="#ffffff" stroke="#e2e8f0" stroke-width="1.5"/>
<text x="258" y="185" fill="#111827" font-family="Inter, Arial, sans-serif" font-size="36" font-weight="800">85%</text>
<text x="258" y="213" fill="#334155" font-family="Inter, Arial, sans-serif" font-size="13" font-weight="700">review bottleneck</text>
<text x="258" y="253" fill="#64748b" font-family="Inter, Arial, sans-serif" font-size="11">GitLab 2026</text>
<rect x="432" y="135" width="174" height="130" rx="18" fill="#ffffff" stroke="#e2e8f0" stroke-width="1.5"/>
<text x="450" y="185" fill="#111827" font-family="Inter, Arial, sans-serif" font-size="36" font-weight="800">42%</text>
<text x="450" y="213" fill="#334155" font-family="Inter, Arial, sans-serif" font-size="13" font-weight="700">source-code DLP</text>
<text x="450" y="253" fill="#64748b" font-family="Inter, Arial, sans-serif" font-size="11">Netskope 2026</text>
<rect x="624" y="135" width="250" height="130" rx="18" fill="#ffffff" stroke="#e2e8f0" stroke-width="1.5"/>
<text x="642" y="185" fill="#111827" font-family="Inter, Arial, sans-serif" font-size="36" font-weight="800">Access</text>
<text x="642" y="213" fill="#334155" font-family="Inter, Arial, sans-serif" font-size="13" font-weight="700">models and copilots are in use</text>
<text x="642" y="253" fill="#64748b" font-family="Inter, Arial, sans-serif" font-size="11">the starting condition</text>
<path d="M 884 200 H 926" stroke="#94a3b8" stroke-width="3"/>
<path d="M 926 200 l -8 -6 v 12 z" fill="#94a3b8"/>
<rect x="934" y="135" width="250" height="130" rx="18" fill="#312e81" stroke="#818cf8" stroke-width="1.5"/>
<text x="956" y="185" fill="#f8fafc" font-family="Inter, Arial, sans-serif" font-size="36" font-weight="800">Readiness</text>
<text x="956" y="213" fill="#cbd5e1" font-family="Inter, Arial, sans-serif" font-size="13" font-weight="700">context, policy, execution, proof</text>
<text x="956" y="253" fill="#a5b4fc" font-family="Inter, Arial, sans-serif" font-size="11">the operating gap</text>
<rect x="70" y="330" width="250" height="110" rx="18" fill="#1e293b" stroke="#475569"/>
<text x="92" y="368" fill="#f8fafc" font-family="Inter, Arial, sans-serif" font-size="22" font-weight="800">Access</text>
<text x="92" y="394" fill="#cbd5e1" font-family="Inter, Arial, sans-serif" font-size="14">AI tools are already in</text>
<text x="92" y="412" fill="#cbd5e1" font-family="Inter, Arial, sans-serif" font-size="14">developer workflows</text>
<path d="M 330 385 H 350" stroke="#94a3b8" stroke-width="3"/>
<path d="M 350 385 l -8 -6 v 12 z" fill="#94a3b8"/>
<rect x="358" y="330" width="250" height="110" rx="18" fill="#1e293b" stroke="#475569"/>
<text x="380" y="368" fill="#f8fafc" font-family="Inter, Arial, sans-serif" font-size="22" font-weight="800">Gap</text>
<text x="380" y="394" fill="#cbd5e1" font-family="Inter, Arial, sans-serif" font-size="14">Context, policy, verification,</text>
<text x="380" y="412" fill="#cbd5e1" font-family="Inter, Arial, sans-serif" font-size="14">and evidence lag behind</text>
<path d="M 618 385 H 638" stroke="#94a3b8" stroke-width="3"/>
<path d="M 638 385 l -8 -6 v 12 z" fill="#94a3b8"/>
<rect x="646" y="330" width="250" height="110" rx="18" fill="#312e81" stroke="#818cf8"/>
<text x="668" y="368" fill="#f8fafc" font-family="Inter, Arial, sans-serif" font-size="22" font-weight="800">aih</text>
<text x="668" y="394" fill="#cbd5e1" font-family="Inter, Arial, sans-serif" font-size="14">Local governed readiness</text>
<text x="668" y="412" fill="#cbd5e1" font-family="Inter, Arial, sans-serif" font-size="14">before the prompt</text>
<path d="M 906 385 H 926" stroke="#94a3b8" stroke-width="3"/>
<path d="M 926 385 l -8 -6 v 12 z" fill="#94a3b8"/>
<rect x="934" y="330" width="250" height="110" rx="18" fill="#1e293b" stroke="#475569"/>
<text x="956" y="368" fill="#f8fafc" font-family="Inter, Arial, sans-serif" font-size="22" font-weight="800">Proof</text>
<text x="956" y="394" fill="#cbd5e1" font-family="Inter, Arial, sans-serif" font-size="14">Plans, gates, ledgers,</text>
<text x="956" y="412" fill="#cbd5e1" font-family="Inter, Arial, sans-serif" font-size="14">bundles, control matrix</text>
<text x="48" y="520" fill="#94a3b8" font-family="Inter, Arial, sans-serif" font-size="13">Use public source links in README References; do not treat the visual as a standalone assurance claim.</text>
</svg>
